<svg id="Capa_1" data-name="Capa 1" xmlns="http://www.w3.org/2000/svg" viewBox="0 0 461.82 383.07"><defs><style>.cls-1{fill:#1d1d1b;}</style></defs><path class="cls-1" d="M112.27,329a67.3,67.3,0,0,1,15.51,19.64q5.59,10.86,7.83,27.71t2.23,43.16q0,19.74.63,29.11T141,462.84q1.89,4.89,4.54,6.38a35.45,35.45,0,0,0,9.08,2.89c3.54.67,6.48,3.12,8.81,7.38s3.49,9.83,3.49,16.75q0,24.12-20.54,24.12a36.61,36.61,0,0,1-22.71-7.58q-10-7.57-15.44-21.43t-5.59-31.8q-.42-30.3-.84-48.64t-1.26-23.73q-2.1-13.35-6.22-20.13a55.41,55.41,0,0,0-10.76-12.66q-6.63-5.88-9.43-10.57T71.32,329q0-14.76,8.11-22.13,10.06-9,14.32-15.25t6-16.15a143.36,143.36,0,0,0,2-21.53q.27-11.67.84-56.12.42-27.53,12.22-44t31.52-16.45q20.53,0,20.54,23.72,0,10.77-3.42,17c-2.29,4.12-5.24,6.51-8.88,7.18q-8.1,1.59-11.32,4.78t-4.19,12.36q-1,9.18-1.26,35.49A421.14,421.14,0,0,1,135.68,280q-1.89,16.46-7.41,28A66.42,66.42,0,0,1,112.27,329Z" transform="translate(-71.32 -137.29)"/><path class="cls-1" d="M199.73,269.09l26,104,28-108.56q3.3-13.09,6.47-18.55a10.44,10.44,0,0,1,9.65-5.45q6.1,0,10.41,5.87A22.45,22.45,0,0,1,284.53,260a38.28,38.28,0,0,1-.76,7.05c-.51,2.69-1.1,5.2-1.77,7.55l-2.29,8.06L248.89,391.75q-1.29,4.69-3.35,11.91A73,73,0,0,1,241,416a22.12,22.12,0,0,1-6.23,8,14.27,14.27,0,0,1-9,2.86,14,14,0,0,1-10.88-4.45,29.59,29.59,0,0,1-6-9.73q-1.93-5.29-6.53-20.89l-30.58-107.9c-.7-2.68-1.43-5.37-2.17-8.05s-1.38-5.43-1.88-8.22a40.34,40.34,0,0,1-.77-7.22,23.3,23.3,0,0,1,2-9.31,19.93,19.93,0,0,1,5.53-7.55,11.7,11.7,0,0,1,7.64-2.94q8,0,11,6.54T199.73,269.09Z" transform="translate(-71.32 -137.29)"/><path class="cls-1" d="M302.41,467q-7.29,0-12.59-6.72t-5.29-18.79a30.46,30.46,0,0,1,5.06-17.62q5.06-7.38,12.47-7.38t12.64,7.3q5.24,7.29,5.23,17.7,0,11.91-5.23,18.71T302.41,467Z" transform="translate(-71.32 -137.29)"/><path class="cls-1" d="M352.75,269.17l26,104,28-108.56q3.28-13.09,6.47-18.54a10.42,10.42,0,0,1,9.64-5.46q6.12,0,10.41,5.88a22.41,22.41,0,0,1,4.29,13.59,38.45,38.45,0,0,1-.76,7.05q-.77,4-1.77,7.55c-.66,2.35-1.43,5-2.29,8.05L401.91,391.83c-.86,3.13-2,7.11-3.35,11.91A73.72,73.72,0,0,1,394,416.08a22.34,22.34,0,0,1-6.24,8,14.32,14.32,0,0,1-9,2.85,14,14,0,0,1-10.88-4.45,29.49,29.49,0,0,1-6-9.73q-1.94-5.28-6.52-20.89L324.76,283.94c-.71-2.69-1.44-5.37-2.18-8.06s-1.37-5.42-1.88-8.22a41.18,41.18,0,0,1-.77-7.22,23.3,23.3,0,0,1,2-9.31,20.12,20.12,0,0,1,5.53-7.55,11.71,11.71,0,0,1,7.65-2.94q8,0,11,6.55T352.75,269.17Z" transform="translate(-71.32 -137.29)"/><path class="cls-1" d="M492.19,328.88a70.16,70.16,0,0,1-12.29-14.15,68.19,68.19,0,0,1-7.83-18,131.07,131.07,0,0,1-4.33-25q-1.26-14.44-1.26-34,0-18.93-.56-29t-2.23-14.65c-1.12-3.05-2.68-5.15-4.68-6.28a29,29,0,0,0-9.16-2.69q-5.18-1-8.73-7.18T437.55,161q0-23.73,20.27-23.73a36.74,36.74,0,0,1,22.85,7.48q9.84,7.47,15.51,21.33t5.8,31.6q.84,66.2,1.95,72.77,2.24,13.15,6.57,20A53.54,53.54,0,0,0,521,302.67a42.26,42.26,0,0,1,9.16,10.46q3,5.19,3,15.75,0,15-8,21.93-9.78,8.58-14.18,15.05A41.8,41.8,0,0,0,504.84,382q-1.74,9.67-2.09,29T502,459.47q-.42,27.51-12.37,44.16t-31.79,16.64q-9.78,0-15-6.18t-5.24-17.94a41,41,0,0,1,1.68-12.06,22.17,22.17,0,0,1,4.4-8.48,10.76,10.76,0,0,1,6.22-3.58,31,31,0,0,0,9.36-3q3.07-1.8,4.69-6.78T466,447.6q.5-9.66.49-28.21.28-27.51,2.24-43.06t7.4-26.71A68.54,68.54,0,0,1,492.19,328.88Z" transform="translate(-71.32 -137.29)"/></svg>