<svg id="IDEAL" xmlns="http://www.w3.org/2000/svg" viewBox="0 0 423.35 241.72"><defs><style>.cls-1{fill:#2e665e;stroke:#000;stroke-width:15px;}.cls-1,.cls-2{stroke-miterlimit:10;}.cls-2{stroke:#fff;stroke-width:10px;}</style></defs><rect class="cls-1" x="7.5" y="7.5" width="408.35" height="226.72" rx="31.28"/><path class="cls-2" d="M218.93,368.9l-56.12-152h24l26.78,74.86c7.4,20.52,13.78,39,18.37,56.82h.51c4.84-17.58,12-36.75,19.64-56.59l29.07-75.09h23.72l-61.47,152Z" transform="translate(-78.89 -172.17)"/><path class="cls-2" d="M361.5,216.92l56.11,152h-24L366.86,294c-7.4-20.52-13.78-39-18.37-56.82H348c-4.84,17.58-12,36.75-19.64,56.59L299.27,368.9H275.55l61.47-152Z" transform="translate(-78.89 -172.17)"/><path class="cls-2" d="M127.89,388.09V198h48.35v13.12H145.86V375h30.38v13.12Z" transform="translate(-78.89 -172.17)"/><path class="cls-2" d="M458.66,197.73V388.09H410.31V375H440.7V210.85H410.31V197.73Z" transform="translate(-78.89 -172.17)"/><path class="cls-2" d="M101.79,380.8a7,7,0,0,1,7.29-7.28,7.29,7.29,0,1,1-7.29,7.28Z" transform="translate(-78.89 -172.17)"/></svg>