<svg id="Capa_3" data-name="Capa 3" xmlns="http://www.w3.org/2000/svg" viewBox="0 0 484.56 275.7"><defs><style>.cls-1{stroke:#2e665e;stroke-width:15px;}.cls-1,.cls-2{stroke-miterlimit:10;}.cls-2{fill:#2e665e;stroke:#fff;stroke-width:9px;}</style></defs><rect class="cls-1" x="7.5" y="7.5" width="469.56" height="260.7" rx="31.28"/><path class="cls-2" d="M199.42,405.12,134.9,230.37h27.57l30.79,86.08c8.51,23.59,15.84,44.85,21.12,65.33H215c5.57-20.22,13.78-42.26,22.58-65.07L271,230.37h27.27L227.58,405.12Z" transform="translate(-39.52 -180.03)"/><path class="cls-2" d="M363.36,230.37l64.53,174.75H400.32L369.52,319c-8.5-23.6-15.83-44.86-21.11-65.34h-.59C342.25,273.93,334,296,325.24,318.78L291.8,405.12H264.53l70.68-174.75Z" transform="translate(-39.52 -180.03)"/><path class="cls-2" d="M94.74,427.19V208.57h55.6v15.09H115.4V412.1h34.94v15.09Z" transform="translate(-39.52 -180.03)"/><path class="cls-2" d="M475.09,208.29v218.9h-55.6V412.1h34.94V223.38H419.49V208.29Z" transform="translate(-39.52 -180.03)"/><path class="cls-2" d="M64.73,418.81a8,8,0,0,1,8.38-8.37c4.88,0,8.24,3.45,8.24,8.37a8.31,8.31,0,1,1-16.62,0Z" transform="translate(-39.52 -180.03)"/></svg>